<?xml version="1.0" encoding="utf-8"?>
<!-- Generator: Adobe Illustrator 24.1.0, SVG Export Plug-In . SVG Version: 6.00 Build 0)  -->
<svg version="1.1" id="Layer_1" xmlns="http://www.w3.org/2000/svg" xmlns:xlink="http://www.w3.org/1999/xlink" x="0px" y="0px"
	 viewBox="0 0 48 48" style="enable-background:new 0 0 48 48;" xml:space="preserve">
<style type="text/css">
	.st0{fill:#03A678;}
</style>
<g id="Layer_3">
	<polygon class="st0" points="34.2,15 28.4,20.8 28.4,20.8 20.6,28.6 13.8,21.9 11.6,24.1 19.4,31.8 19.3,31.8 20.5,33 20.5,33 
		20.6,33 21.1,32.5 21.1,32.5 30.6,23 30.6,23 36.4,17.2 	"/>
	<path class="st0" d="M24,0C10.7,0,0,10.7,0,24s10.7,24,24,24s24-10.7,24-24S37.3,0,24,0z M24,44C13,44,4,35,4,24S13,4,24,4
		s20,9,20,20S35,44,24,44z"/>
</g>
</svg>
